<mxfile host="app.diagrams.net" agent="Mozilla/5.0 (Windows NT 10.0; Win64; x64) AppleWebKit/537.36 (KHTML, like Gecko) Chrome/137.0.0.0 Safari/537.36" version="27.1.6">
  <diagram name="Page-1" id="EEpj73DsTsfHjEE1nINr">
    <mxGraphModel dx="1678" dy="1429" grid="0" gridSize="10" guides="1" tooltips="1" connect="1" arrows="1" fold="1" page="0" pageScale="1" pageWidth="850" pageHeight="1100" math="0" shadow="0">
      <root>
        <mxCell id="0" />
        <mxCell id="1" parent="0" />
        <mxCell id="Lbr_G0M4RC8AalQgOM9N-105" value="" style="rounded=0;whiteSpace=wrap;html=1;fillColor=none;strokeColor=none;" vertex="1" parent="1">
          <mxGeometry x="93" y="-239" width="1071" height="701" as="geometry" />
        </mxCell>
        <mxCell id="Lbr_G0M4RC8AalQgOM9N-1" value="&lt;font style=&quot;&quot;&gt;&lt;b style=&quot;font-size: 32px;&quot;&gt;Sales Data Mart &lt;/b&gt;&lt;font style=&quot;font-size: 22px;&quot;&gt;(Star Schema)&lt;/font&gt;&lt;/font&gt;" style="text;html=1;align=center;verticalAlign=middle;whiteSpace=wrap;rounded=0;" vertex="1" parent="1">
          <mxGeometry x="134" y="-200" width="395" height="45" as="geometry" />
        </mxCell>
        <mxCell id="Lbr_G0M4RC8AalQgOM9N-2" value="&lt;font style=&quot;font-size: 16px;&quot;&gt;gold.dim_customers&lt;/font&gt;" style="shape=table;startSize=30;container=1;collapsible=1;childLayout=tableLayout;fixedRows=1;rowLines=0;fontStyle=1;align=center;resizeLast=1;html=1;rounded=1;fillColor=#fff2cc;strokeColor=#d6b656;" vertex="1" parent="1">
          <mxGeometry x="134" y="-89" width="190" height="360" as="geometry" />
        </mxCell>
        <mxCell id="Lbr_G0M4RC8AalQgOM9N-3" value="" style="shape=tableRow;horizontal=0;startSize=0;swimlaneHead=0;swimlaneBody=0;fillColor=none;collapsible=0;dropTarget=0;points=[[0,0.5],[1,0.5]];portConstraint=eastwest;top=0;left=0;right=0;bottom=1;fontSize=16;fontStyle=1" vertex="1" parent="Lbr_G0M4RC8AalQgOM9N-2">
          <mxGeometry y="30" width="190" height="33" as="geometry" />
        </mxCell>
        <mxCell id="Lbr_G0M4RC8AalQgOM9N-4" value="PK" style="shape=partialRectangle;connectable=0;fillColor=none;top=0;left=0;bottom=0;right=0;fontStyle=1;overflow=hidden;whiteSpace=wrap;html=1;fontSize=16;" vertex="1" parent="Lbr_G0M4RC8AalQgOM9N-3">
          <mxGeometry width="30" height="33" as="geometry">
            <mxRectangle width="30" height="33" as="alternateBounds" />
          </mxGeometry>
        </mxCell>
        <mxCell id="Lbr_G0M4RC8AalQgOM9N-5" value="customer_key" style="shape=partialRectangle;connectable=0;fillColor=none;top=0;left=0;bottom=0;right=0;align=left;spacingLeft=6;fontStyle=5;overflow=hidden;whiteSpace=wrap;html=1;fontSize=16;" vertex="1" parent="Lbr_G0M4RC8AalQgOM9N-3">
          <mxGeometry x="30" width="160" height="33" as="geometry">
            <mxRectangle width="160" height="33" as="alternateBounds" />
          </mxGeometry>
        </mxCell>
        <mxCell id="Lbr_G0M4RC8AalQgOM9N-6" value="" style="shape=tableRow;horizontal=0;startSize=0;swimlaneHead=0;swimlaneBody=0;fillColor=none;collapsible=0;dropTarget=0;points=[[0,0.5],[1,0.5]];portConstraint=eastwest;top=0;left=0;right=0;bottom=0;fontSize=16;fontStyle=1" vertex="1" parent="Lbr_G0M4RC8AalQgOM9N-2">
          <mxGeometry y="63" width="190" height="33" as="geometry" />
        </mxCell>
        <mxCell id="Lbr_G0M4RC8AalQgOM9N-7" value="" style="shape=partialRectangle;connectable=0;fillColor=none;top=0;left=0;bottom=0;right=0;editable=1;overflow=hidden;whiteSpace=wrap;html=1;fontSize=16;fontStyle=1" vertex="1" parent="Lbr_G0M4RC8AalQgOM9N-6">
          <mxGeometry width="30" height="33" as="geometry">
            <mxRectangle width="30" height="33" as="alternateBounds" />
          </mxGeometry>
        </mxCell>
        <mxCell id="Lbr_G0M4RC8AalQgOM9N-8" value="customer_id" style="shape=partialRectangle;connectable=0;fillColor=none;top=0;left=0;bottom=0;right=0;align=left;spacingLeft=6;overflow=hidden;whiteSpace=wrap;html=1;fontSize=16;fontStyle=1" vertex="1" parent="Lbr_G0M4RC8AalQgOM9N-6">
          <mxGeometry x="30" width="160" height="33" as="geometry">
            <mxRectangle width="160" height="33" as="alternateBounds" />
          </mxGeometry>
        </mxCell>
        <mxCell id="Lbr_G0M4RC8AalQgOM9N-9" value="" style="shape=tableRow;horizontal=0;startSize=0;swimlaneHead=0;swimlaneBody=0;fillColor=none;collapsible=0;dropTarget=0;points=[[0,0.5],[1,0.5]];portConstraint=eastwest;top=0;left=0;right=0;bottom=0;fontSize=16;fontStyle=1" vertex="1" parent="Lbr_G0M4RC8AalQgOM9N-2">
          <mxGeometry y="96" width="190" height="33" as="geometry" />
        </mxCell>
        <mxCell id="Lbr_G0M4RC8AalQgOM9N-10" value="" style="shape=partialRectangle;connectable=0;fillColor=none;top=0;left=0;bottom=0;right=0;editable=1;overflow=hidden;whiteSpace=wrap;html=1;fontSize=16;fontStyle=1" vertex="1" parent="Lbr_G0M4RC8AalQgOM9N-9">
          <mxGeometry width="30" height="33" as="geometry">
            <mxRectangle width="30" height="33" as="alternateBounds" />
          </mxGeometry>
        </mxCell>
        <mxCell id="Lbr_G0M4RC8AalQgOM9N-11" value="customer_number" style="shape=partialRectangle;connectable=0;fillColor=none;top=0;left=0;bottom=0;right=0;align=left;spacingLeft=6;overflow=hidden;whiteSpace=wrap;html=1;fontSize=16;fontStyle=1" vertex="1" parent="Lbr_G0M4RC8AalQgOM9N-9">
          <mxGeometry x="30" width="160" height="33" as="geometry">
            <mxRectangle width="160" height="33" as="alternateBounds" />
          </mxGeometry>
        </mxCell>
        <mxCell id="Lbr_G0M4RC8AalQgOM9N-12" value="" style="shape=tableRow;horizontal=0;startSize=0;swimlaneHead=0;swimlaneBody=0;fillColor=none;collapsible=0;dropTarget=0;points=[[0,0.5],[1,0.5]];portConstraint=eastwest;top=0;left=0;right=0;bottom=0;fontSize=16;fontStyle=1" vertex="1" parent="Lbr_G0M4RC8AalQgOM9N-2">
          <mxGeometry y="129" width="190" height="33" as="geometry" />
        </mxCell>
        <mxCell id="Lbr_G0M4RC8AalQgOM9N-13" value="" style="shape=partialRectangle;connectable=0;fillColor=none;top=0;left=0;bottom=0;right=0;editable=1;overflow=hidden;whiteSpace=wrap;html=1;fontSize=16;fontStyle=1" vertex="1" parent="Lbr_G0M4RC8AalQgOM9N-12">
          <mxGeometry width="30" height="33" as="geometry">
            <mxRectangle width="30" height="33" as="alternateBounds" />
          </mxGeometry>
        </mxCell>
        <mxCell id="Lbr_G0M4RC8AalQgOM9N-14" value="first_name" style="shape=partialRectangle;connectable=0;fillColor=none;top=0;left=0;bottom=0;right=0;align=left;spacingLeft=6;overflow=hidden;whiteSpace=wrap;html=1;fontSize=16;fontStyle=1" vertex="1" parent="Lbr_G0M4RC8AalQgOM9N-12">
          <mxGeometry x="30" width="160" height="33" as="geometry">
            <mxRectangle width="160" height="33" as="alternateBounds" />
          </mxGeometry>
        </mxCell>
        <mxCell id="Lbr_G0M4RC8AalQgOM9N-15" value="" style="shape=tableRow;horizontal=0;startSize=0;swimlaneHead=0;swimlaneBody=0;fillColor=none;collapsible=0;dropTarget=0;points=[[0,0.5],[1,0.5]];portConstraint=eastwest;top=0;left=0;right=0;bottom=0;fontSize=16;fontStyle=1" vertex="1" parent="Lbr_G0M4RC8AalQgOM9N-2">
          <mxGeometry y="162" width="190" height="33" as="geometry" />
        </mxCell>
        <mxCell id="Lbr_G0M4RC8AalQgOM9N-16" value="" style="shape=partialRectangle;connectable=0;fillColor=none;top=0;left=0;bottom=0;right=0;editable=1;overflow=hidden;whiteSpace=wrap;html=1;fontSize=16;fontStyle=1" vertex="1" parent="Lbr_G0M4RC8AalQgOM9N-15">
          <mxGeometry width="30" height="33" as="geometry">
            <mxRectangle width="30" height="33" as="alternateBounds" />
          </mxGeometry>
        </mxCell>
        <mxCell id="Lbr_G0M4RC8AalQgOM9N-17" value="last_name" style="shape=partialRectangle;connectable=0;fillColor=none;top=0;left=0;bottom=0;right=0;align=left;spacingLeft=6;overflow=hidden;whiteSpace=wrap;html=1;fontSize=16;fontStyle=1" vertex="1" parent="Lbr_G0M4RC8AalQgOM9N-15">
          <mxGeometry x="30" width="160" height="33" as="geometry">
            <mxRectangle width="160" height="33" as="alternateBounds" />
          </mxGeometry>
        </mxCell>
        <mxCell id="Lbr_G0M4RC8AalQgOM9N-18" value="" style="shape=tableRow;horizontal=0;startSize=0;swimlaneHead=0;swimlaneBody=0;fillColor=none;collapsible=0;dropTarget=0;points=[[0,0.5],[1,0.5]];portConstraint=eastwest;top=0;left=0;right=0;bottom=0;fontSize=16;fontStyle=1" vertex="1" parent="Lbr_G0M4RC8AalQgOM9N-2">
          <mxGeometry y="195" width="190" height="33" as="geometry" />
        </mxCell>
        <mxCell id="Lbr_G0M4RC8AalQgOM9N-19" value="" style="shape=partialRectangle;connectable=0;fillColor=none;top=0;left=0;bottom=0;right=0;editable=1;overflow=hidden;whiteSpace=wrap;html=1;fontSize=16;fontStyle=1" vertex="1" parent="Lbr_G0M4RC8AalQgOM9N-18">
          <mxGeometry width="30" height="33" as="geometry">
            <mxRectangle width="30" height="33" as="alternateBounds" />
          </mxGeometry>
        </mxCell>
        <mxCell id="Lbr_G0M4RC8AalQgOM9N-20" value="country" style="shape=partialRectangle;connectable=0;fillColor=none;top=0;left=0;bottom=0;right=0;align=left;spacingLeft=6;overflow=hidden;whiteSpace=wrap;html=1;fontSize=16;fontStyle=1" vertex="1" parent="Lbr_G0M4RC8AalQgOM9N-18">
          <mxGeometry x="30" width="160" height="33" as="geometry">
            <mxRectangle width="160" height="33" as="alternateBounds" />
          </mxGeometry>
        </mxCell>
        <mxCell id="Lbr_G0M4RC8AalQgOM9N-21" value="" style="shape=tableRow;horizontal=0;startSize=0;swimlaneHead=0;swimlaneBody=0;fillColor=none;collapsible=0;dropTarget=0;points=[[0,0.5],[1,0.5]];portConstraint=eastwest;top=0;left=0;right=0;bottom=0;fontSize=16;fontStyle=1" vertex="1" parent="Lbr_G0M4RC8AalQgOM9N-2">
          <mxGeometry y="228" width="190" height="33" as="geometry" />
        </mxCell>
        <mxCell id="Lbr_G0M4RC8AalQgOM9N-22" value="" style="shape=partialRectangle;connectable=0;fillColor=none;top=0;left=0;bottom=0;right=0;editable=1;overflow=hidden;whiteSpace=wrap;html=1;fontSize=16;fontStyle=1" vertex="1" parent="Lbr_G0M4RC8AalQgOM9N-21">
          <mxGeometry width="30" height="33" as="geometry">
            <mxRectangle width="30" height="33" as="alternateBounds" />
          </mxGeometry>
        </mxCell>
        <mxCell id="Lbr_G0M4RC8AalQgOM9N-23" value="marital_status" style="shape=partialRectangle;connectable=0;fillColor=none;top=0;left=0;bottom=0;right=0;align=left;spacingLeft=6;overflow=hidden;whiteSpace=wrap;html=1;fontSize=16;fontStyle=1" vertex="1" parent="Lbr_G0M4RC8AalQgOM9N-21">
          <mxGeometry x="30" width="160" height="33" as="geometry">
            <mxRectangle width="160" height="33" as="alternateBounds" />
          </mxGeometry>
        </mxCell>
        <mxCell id="Lbr_G0M4RC8AalQgOM9N-24" value="" style="shape=tableRow;horizontal=0;startSize=0;swimlaneHead=0;swimlaneBody=0;fillColor=none;collapsible=0;dropTarget=0;points=[[0,0.5],[1,0.5]];portConstraint=eastwest;top=0;left=0;right=0;bottom=0;fontSize=16;fontStyle=1" vertex="1" parent="Lbr_G0M4RC8AalQgOM9N-2">
          <mxGeometry y="261" width="190" height="33" as="geometry" />
        </mxCell>
        <mxCell id="Lbr_G0M4RC8AalQgOM9N-25" value="" style="shape=partialRectangle;connectable=0;fillColor=none;top=0;left=0;bottom=0;right=0;editable=1;overflow=hidden;whiteSpace=wrap;html=1;fontSize=16;fontStyle=1" vertex="1" parent="Lbr_G0M4RC8AalQgOM9N-24">
          <mxGeometry width="30" height="33" as="geometry">
            <mxRectangle width="30" height="33" as="alternateBounds" />
          </mxGeometry>
        </mxCell>
        <mxCell id="Lbr_G0M4RC8AalQgOM9N-26" value="gender" style="shape=partialRectangle;connectable=0;fillColor=none;top=0;left=0;bottom=0;right=0;align=left;spacingLeft=6;overflow=hidden;whiteSpace=wrap;html=1;fontSize=16;fontStyle=1" vertex="1" parent="Lbr_G0M4RC8AalQgOM9N-24">
          <mxGeometry x="30" width="160" height="33" as="geometry">
            <mxRectangle width="160" height="33" as="alternateBounds" />
          </mxGeometry>
        </mxCell>
        <mxCell id="Lbr_G0M4RC8AalQgOM9N-27" value="" style="shape=tableRow;horizontal=0;startSize=0;swimlaneHead=0;swimlaneBody=0;fillColor=none;collapsible=0;dropTarget=0;points=[[0,0.5],[1,0.5]];portConstraint=eastwest;top=0;left=0;right=0;bottom=0;fontSize=16;fontStyle=1" vertex="1" parent="Lbr_G0M4RC8AalQgOM9N-2">
          <mxGeometry y="294" width="190" height="33" as="geometry" />
        </mxCell>
        <mxCell id="Lbr_G0M4RC8AalQgOM9N-28" value="" style="shape=partialRectangle;connectable=0;fillColor=none;top=0;left=0;bottom=0;right=0;editable=1;overflow=hidden;whiteSpace=wrap;html=1;fontSize=16;fontStyle=1" vertex="1" parent="Lbr_G0M4RC8AalQgOM9N-27">
          <mxGeometry width="30" height="33" as="geometry">
            <mxRectangle width="30" height="33" as="alternateBounds" />
          </mxGeometry>
        </mxCell>
        <mxCell id="Lbr_G0M4RC8AalQgOM9N-29" value="birthdate" style="shape=partialRectangle;connectable=0;fillColor=none;top=0;left=0;bottom=0;right=0;align=left;spacingLeft=6;overflow=hidden;whiteSpace=wrap;html=1;fontSize=16;fontStyle=1" vertex="1" parent="Lbr_G0M4RC8AalQgOM9N-27">
          <mxGeometry x="30" width="160" height="33" as="geometry">
            <mxRectangle width="160" height="33" as="alternateBounds" />
          </mxGeometry>
        </mxCell>
        <mxCell id="Lbr_G0M4RC8AalQgOM9N-30" value="" style="shape=tableRow;horizontal=0;startSize=0;swimlaneHead=0;swimlaneBody=0;fillColor=none;collapsible=0;dropTarget=0;points=[[0,0.5],[1,0.5]];portConstraint=eastwest;top=0;left=0;right=0;bottom=0;fontSize=16;fontStyle=1" vertex="1" parent="Lbr_G0M4RC8AalQgOM9N-2">
          <mxGeometry y="327" width="190" height="33" as="geometry" />
        </mxCell>
        <mxCell id="Lbr_G0M4RC8AalQgOM9N-31" value="" style="shape=partialRectangle;connectable=0;fillColor=none;top=0;left=0;bottom=0;right=0;editable=1;overflow=hidden;whiteSpace=wrap;html=1;fontSize=16;fontStyle=1" vertex="1" parent="Lbr_G0M4RC8AalQgOM9N-30">
          <mxGeometry width="30" height="33" as="geometry">
            <mxRectangle width="30" height="33" as="alternateBounds" />
          </mxGeometry>
        </mxCell>
        <mxCell id="Lbr_G0M4RC8AalQgOM9N-32" value="create_date" style="shape=partialRectangle;connectable=0;fillColor=none;top=0;left=0;bottom=0;right=0;align=left;spacingLeft=6;overflow=hidden;whiteSpace=wrap;html=1;fontSize=16;fontStyle=1" vertex="1" parent="Lbr_G0M4RC8AalQgOM9N-30">
          <mxGeometry x="30" width="160" height="33" as="geometry">
            <mxRectangle width="160" height="33" as="alternateBounds" />
          </mxGeometry>
        </mxCell>
        <mxCell id="Lbr_G0M4RC8AalQgOM9N-33" value="&lt;font style=&quot;font-size: 16px;&quot;&gt;gold.fact_sales&lt;/font&gt;" style="shape=table;startSize=30;container=1;collapsible=1;childLayout=tableLayout;fixedRows=1;rowLines=0;fontStyle=1;align=center;resizeLast=1;html=1;rounded=1;fillColor=#dae8fc;strokeColor=#6c8ebf;" vertex="1" parent="1">
          <mxGeometry x="524" y="-89" width="190" height="327" as="geometry" />
        </mxCell>
        <mxCell id="Lbr_G0M4RC8AalQgOM9N-37" value="" style="shape=tableRow;horizontal=0;startSize=0;swimlaneHead=0;swimlaneBody=0;fillColor=none;collapsible=0;dropTarget=0;points=[[0,0.5],[1,0.5]];portConstraint=eastwest;top=0;left=0;right=0;bottom=0;fontSize=16;fontStyle=1" vertex="1" parent="Lbr_G0M4RC8AalQgOM9N-33">
          <mxGeometry y="30" width="190" height="33" as="geometry" />
        </mxCell>
        <mxCell id="Lbr_G0M4RC8AalQgOM9N-38" value="" style="shape=partialRectangle;connectable=0;fillColor=none;top=0;left=0;bottom=0;right=0;editable=1;overflow=hidden;whiteSpace=wrap;html=1;fontSize=16;fontStyle=1" vertex="1" parent="Lbr_G0M4RC8AalQgOM9N-37">
          <mxGeometry width="41.655172413793196" height="33" as="geometry">
            <mxRectangle width="41.655172413793196" height="33" as="alternateBounds" />
          </mxGeometry>
        </mxCell>
        <mxCell id="Lbr_G0M4RC8AalQgOM9N-39" value="order_number" style="shape=partialRectangle;connectable=0;fillColor=none;top=0;left=0;bottom=0;right=0;align=left;spacingLeft=6;overflow=hidden;whiteSpace=wrap;html=1;fontSize=16;fontStyle=1" vertex="1" parent="Lbr_G0M4RC8AalQgOM9N-37">
          <mxGeometry x="41.655172413793196" width="148.3448275862068" height="33" as="geometry">
            <mxRectangle width="148.3448275862068" height="33" as="alternateBounds" />
          </mxGeometry>
        </mxCell>
        <mxCell id="Lbr_G0M4RC8AalQgOM9N-40" value="" style="shape=tableRow;horizontal=0;startSize=0;swimlaneHead=0;swimlaneBody=0;fillColor=none;collapsible=0;dropTarget=0;points=[[0,0.5],[1,0.5]];portConstraint=eastwest;top=0;left=0;right=0;bottom=0;fontSize=16;fontStyle=1" vertex="1" parent="Lbr_G0M4RC8AalQgOM9N-33">
          <mxGeometry y="63" width="190" height="33" as="geometry" />
        </mxCell>
        <mxCell id="Lbr_G0M4RC8AalQgOM9N-41" value="FK1" style="shape=partialRectangle;connectable=0;fillColor=none;top=0;left=0;bottom=0;right=0;editable=1;overflow=hidden;whiteSpace=wrap;html=1;fontSize=16;fontStyle=1" vertex="1" parent="Lbr_G0M4RC8AalQgOM9N-40">
          <mxGeometry width="41.655172413793196" height="33" as="geometry">
            <mxRectangle width="41.655172413793196" height="33" as="alternateBounds" />
          </mxGeometry>
        </mxCell>
        <mxCell id="Lbr_G0M4RC8AalQgOM9N-42" value="product_key" style="shape=partialRectangle;connectable=0;fillColor=none;top=0;left=0;bottom=0;right=0;align=left;spacingLeft=6;overflow=hidden;whiteSpace=wrap;html=1;fontSize=16;fontStyle=1" vertex="1" parent="Lbr_G0M4RC8AalQgOM9N-40">
          <mxGeometry x="41.655172413793196" width="148.3448275862068" height="33" as="geometry">
            <mxRectangle width="148.3448275862068" height="33" as="alternateBounds" />
          </mxGeometry>
        </mxCell>
        <mxCell id="Lbr_G0M4RC8AalQgOM9N-43" value="" style="shape=tableRow;horizontal=0;startSize=0;swimlaneHead=0;swimlaneBody=0;fillColor=none;collapsible=0;dropTarget=0;points=[[0,0.5],[1,0.5]];portConstraint=eastwest;top=0;left=0;right=0;bottom=0;fontSize=16;fontStyle=1" vertex="1" parent="Lbr_G0M4RC8AalQgOM9N-33">
          <mxGeometry y="96" width="190" height="33" as="geometry" />
        </mxCell>
        <mxCell id="Lbr_G0M4RC8AalQgOM9N-44" value="FK2" style="shape=partialRectangle;connectable=0;fillColor=none;top=0;left=0;bottom=0;right=0;editable=1;overflow=hidden;whiteSpace=wrap;html=1;fontSize=16;fontStyle=1" vertex="1" parent="Lbr_G0M4RC8AalQgOM9N-43">
          <mxGeometry width="41.655172413793196" height="33" as="geometry">
            <mxRectangle width="41.655172413793196" height="33" as="alternateBounds" />
          </mxGeometry>
        </mxCell>
        <mxCell id="Lbr_G0M4RC8AalQgOM9N-45" value="customer_key" style="shape=partialRectangle;connectable=0;fillColor=none;top=0;left=0;bottom=0;right=0;align=left;spacingLeft=6;overflow=hidden;whiteSpace=wrap;html=1;fontSize=16;fontStyle=1" vertex="1" parent="Lbr_G0M4RC8AalQgOM9N-43">
          <mxGeometry x="41.655172413793196" width="148.3448275862068" height="33" as="geometry">
            <mxRectangle width="148.3448275862068" height="33" as="alternateBounds" />
          </mxGeometry>
        </mxCell>
        <mxCell id="Lbr_G0M4RC8AalQgOM9N-46" value="" style="shape=tableRow;horizontal=0;startSize=0;swimlaneHead=0;swimlaneBody=0;fillColor=none;collapsible=0;dropTarget=0;points=[[0,0.5],[1,0.5]];portConstraint=eastwest;top=0;left=0;right=0;bottom=0;fontSize=16;fontStyle=1" vertex="1" parent="Lbr_G0M4RC8AalQgOM9N-33">
          <mxGeometry y="129" width="190" height="33" as="geometry" />
        </mxCell>
        <mxCell id="Lbr_G0M4RC8AalQgOM9N-47" value="" style="shape=partialRectangle;connectable=0;fillColor=none;top=0;left=0;bottom=0;right=0;editable=1;overflow=hidden;whiteSpace=wrap;html=1;fontSize=16;fontStyle=1" vertex="1" parent="Lbr_G0M4RC8AalQgOM9N-46">
          <mxGeometry width="41.655172413793196" height="33" as="geometry">
            <mxRectangle width="41.655172413793196" height="33" as="alternateBounds" />
          </mxGeometry>
        </mxCell>
        <mxCell id="Lbr_G0M4RC8AalQgOM9N-48" value="order_date" style="shape=partialRectangle;connectable=0;fillColor=none;top=0;left=0;bottom=0;right=0;align=left;spacingLeft=6;overflow=hidden;whiteSpace=wrap;html=1;fontSize=16;fontStyle=1" vertex="1" parent="Lbr_G0M4RC8AalQgOM9N-46">
          <mxGeometry x="41.655172413793196" width="148.3448275862068" height="33" as="geometry">
            <mxRectangle width="148.3448275862068" height="33" as="alternateBounds" />
          </mxGeometry>
        </mxCell>
        <mxCell id="Lbr_G0M4RC8AalQgOM9N-49" value="" style="shape=tableRow;horizontal=0;startSize=0;swimlaneHead=0;swimlaneBody=0;fillColor=none;collapsible=0;dropTarget=0;points=[[0,0.5],[1,0.5]];portConstraint=eastwest;top=0;left=0;right=0;bottom=0;fontSize=16;fontStyle=1" vertex="1" parent="Lbr_G0M4RC8AalQgOM9N-33">
          <mxGeometry y="162" width="190" height="33" as="geometry" />
        </mxCell>
        <mxCell id="Lbr_G0M4RC8AalQgOM9N-50" value="" style="shape=partialRectangle;connectable=0;fillColor=none;top=0;left=0;bottom=0;right=0;editable=1;overflow=hidden;whiteSpace=wrap;html=1;fontSize=16;fontStyle=1" vertex="1" parent="Lbr_G0M4RC8AalQgOM9N-49">
          <mxGeometry width="41.655172413793196" height="33" as="geometry">
            <mxRectangle width="41.655172413793196" height="33" as="alternateBounds" />
          </mxGeometry>
        </mxCell>
        <mxCell id="Lbr_G0M4RC8AalQgOM9N-51" value="shipping_date" style="shape=partialRectangle;connectable=0;fillColor=none;top=0;left=0;bottom=0;right=0;align=left;spacingLeft=6;overflow=hidden;whiteSpace=wrap;html=1;fontSize=16;fontStyle=1" vertex="1" parent="Lbr_G0M4RC8AalQgOM9N-49">
          <mxGeometry x="41.655172413793196" width="148.3448275862068" height="33" as="geometry">
            <mxRectangle width="148.3448275862068" height="33" as="alternateBounds" />
          </mxGeometry>
        </mxCell>
        <mxCell id="Lbr_G0M4RC8AalQgOM9N-52" value="" style="shape=tableRow;horizontal=0;startSize=0;swimlaneHead=0;swimlaneBody=0;fillColor=none;collapsible=0;dropTarget=0;points=[[0,0.5],[1,0.5]];portConstraint=eastwest;top=0;left=0;right=0;bottom=0;fontSize=16;fontStyle=1" vertex="1" parent="Lbr_G0M4RC8AalQgOM9N-33">
          <mxGeometry y="195" width="190" height="33" as="geometry" />
        </mxCell>
        <mxCell id="Lbr_G0M4RC8AalQgOM9N-53" value="" style="shape=partialRectangle;connectable=0;fillColor=none;top=0;left=0;bottom=0;right=0;editable=1;overflow=hidden;whiteSpace=wrap;html=1;fontSize=16;fontStyle=1" vertex="1" parent="Lbr_G0M4RC8AalQgOM9N-52">
          <mxGeometry width="41.655172413793196" height="33" as="geometry">
            <mxRectangle width="41.655172413793196" height="33" as="alternateBounds" />
          </mxGeometry>
        </mxCell>
        <mxCell id="Lbr_G0M4RC8AalQgOM9N-54" value="due_date" style="shape=partialRectangle;connectable=0;fillColor=none;top=0;left=0;bottom=0;right=0;align=left;spacingLeft=6;overflow=hidden;whiteSpace=wrap;html=1;fontSize=16;fontStyle=1" vertex="1" parent="Lbr_G0M4RC8AalQgOM9N-52">
          <mxGeometry x="41.655172413793196" width="148.3448275862068" height="33" as="geometry">
            <mxRectangle width="148.3448275862068" height="33" as="alternateBounds" />
          </mxGeometry>
        </mxCell>
        <mxCell id="Lbr_G0M4RC8AalQgOM9N-55" value="" style="shape=tableRow;horizontal=0;startSize=0;swimlaneHead=0;swimlaneBody=0;fillColor=none;collapsible=0;dropTarget=0;points=[[0,0.5],[1,0.5]];portConstraint=eastwest;top=0;left=0;right=0;bottom=0;fontSize=16;fontStyle=1" vertex="1" parent="Lbr_G0M4RC8AalQgOM9N-33">
          <mxGeometry y="228" width="190" height="33" as="geometry" />
        </mxCell>
        <mxCell id="Lbr_G0M4RC8AalQgOM9N-56" value="" style="shape=partialRectangle;connectable=0;fillColor=none;top=0;left=0;bottom=0;right=0;editable=1;overflow=hidden;whiteSpace=wrap;html=1;fontSize=16;fontStyle=1" vertex="1" parent="Lbr_G0M4RC8AalQgOM9N-55">
          <mxGeometry width="41.655172413793196" height="33" as="geometry">
            <mxRectangle width="41.655172413793196" height="33" as="alternateBounds" />
          </mxGeometry>
        </mxCell>
        <mxCell id="Lbr_G0M4RC8AalQgOM9N-57" value="sales_amount" style="shape=partialRectangle;connectable=0;fillColor=none;top=0;left=0;bottom=0;right=0;align=left;spacingLeft=6;overflow=hidden;whiteSpace=wrap;html=1;fontSize=16;fontStyle=1" vertex="1" parent="Lbr_G0M4RC8AalQgOM9N-55">
          <mxGeometry x="41.655172413793196" width="148.3448275862068" height="33" as="geometry">
            <mxRectangle width="148.3448275862068" height="33" as="alternateBounds" />
          </mxGeometry>
        </mxCell>
        <mxCell id="Lbr_G0M4RC8AalQgOM9N-58" value="" style="shape=tableRow;horizontal=0;startSize=0;swimlaneHead=0;swimlaneBody=0;fillColor=none;collapsible=0;dropTarget=0;points=[[0,0.5],[1,0.5]];portConstraint=eastwest;top=0;left=0;right=0;bottom=0;fontSize=16;fontStyle=1" vertex="1" parent="Lbr_G0M4RC8AalQgOM9N-33">
          <mxGeometry y="261" width="190" height="33" as="geometry" />
        </mxCell>
        <mxCell id="Lbr_G0M4RC8AalQgOM9N-59" value="" style="shape=partialRectangle;connectable=0;fillColor=none;top=0;left=0;bottom=0;right=0;editable=1;overflow=hidden;whiteSpace=wrap;html=1;fontSize=16;fontStyle=1" vertex="1" parent="Lbr_G0M4RC8AalQgOM9N-58">
          <mxGeometry width="41.655172413793196" height="33" as="geometry">
            <mxRectangle width="41.655172413793196" height="33" as="alternateBounds" />
          </mxGeometry>
        </mxCell>
        <mxCell id="Lbr_G0M4RC8AalQgOM9N-60" value="quantity" style="shape=partialRectangle;connectable=0;fillColor=none;top=0;left=0;bottom=0;right=0;align=left;spacingLeft=6;overflow=hidden;whiteSpace=wrap;html=1;fontSize=16;fontStyle=1" vertex="1" parent="Lbr_G0M4RC8AalQgOM9N-58">
          <mxGeometry x="41.655172413793196" width="148.3448275862068" height="33" as="geometry">
            <mxRectangle width="148.3448275862068" height="33" as="alternateBounds" />
          </mxGeometry>
        </mxCell>
        <mxCell id="Lbr_G0M4RC8AalQgOM9N-61" value="" style="shape=tableRow;horizontal=0;startSize=0;swimlaneHead=0;swimlaneBody=0;fillColor=none;collapsible=0;dropTarget=0;points=[[0,0.5],[1,0.5]];portConstraint=eastwest;top=0;left=0;right=0;bottom=0;fontSize=16;fontStyle=1" vertex="1" parent="Lbr_G0M4RC8AalQgOM9N-33">
          <mxGeometry y="294" width="190" height="33" as="geometry" />
        </mxCell>
        <mxCell id="Lbr_G0M4RC8AalQgOM9N-62" value="" style="shape=partialRectangle;connectable=0;fillColor=none;top=0;left=0;bottom=0;right=0;editable=1;overflow=hidden;whiteSpace=wrap;html=1;fontSize=16;fontStyle=1" vertex="1" parent="Lbr_G0M4RC8AalQgOM9N-61">
          <mxGeometry width="41.655172413793196" height="33" as="geometry">
            <mxRectangle width="41.655172413793196" height="33" as="alternateBounds" />
          </mxGeometry>
        </mxCell>
        <mxCell id="Lbr_G0M4RC8AalQgOM9N-63" value="price" style="shape=partialRectangle;connectable=0;fillColor=none;top=0;left=0;bottom=0;right=0;align=left;spacingLeft=6;overflow=hidden;whiteSpace=wrap;html=1;fontSize=16;fontStyle=1" vertex="1" parent="Lbr_G0M4RC8AalQgOM9N-61">
          <mxGeometry x="41.655172413793196" width="148.3448275862068" height="33" as="geometry">
            <mxRectangle width="148.3448275862068" height="33" as="alternateBounds" />
          </mxGeometry>
        </mxCell>
        <mxCell id="Lbr_G0M4RC8AalQgOM9N-67" value="&lt;font style=&quot;font-size: 16px;&quot;&gt;gold.dim_products&lt;/font&gt;" style="shape=table;startSize=30;container=1;collapsible=1;childLayout=tableLayout;fixedRows=1;rowLines=0;fontStyle=1;align=center;resizeLast=1;html=1;rounded=1;fillColor=#fff2cc;strokeColor=#d6b656;" vertex="1" parent="1">
          <mxGeometry x="918" y="-89" width="190" height="393" as="geometry" />
        </mxCell>
        <mxCell id="Lbr_G0M4RC8AalQgOM9N-68" value="" style="shape=tableRow;horizontal=0;startSize=0;swimlaneHead=0;swimlaneBody=0;fillColor=none;collapsible=0;dropTarget=0;points=[[0,0.5],[1,0.5]];portConstraint=eastwest;top=0;left=0;right=0;bottom=1;fontSize=16;fontStyle=1" vertex="1" parent="Lbr_G0M4RC8AalQgOM9N-67">
          <mxGeometry y="30" width="190" height="33" as="geometry" />
        </mxCell>
        <mxCell id="Lbr_G0M4RC8AalQgOM9N-69" value="PK" style="shape=partialRectangle;connectable=0;fillColor=none;top=0;left=0;bottom=0;right=0;fontStyle=1;overflow=hidden;whiteSpace=wrap;html=1;fontSize=16;" vertex="1" parent="Lbr_G0M4RC8AalQgOM9N-68">
          <mxGeometry width="30" height="33" as="geometry">
            <mxRectangle width="30" height="33" as="alternateBounds" />
          </mxGeometry>
        </mxCell>
        <mxCell id="Lbr_G0M4RC8AalQgOM9N-70" value="product_key" style="shape=partialRectangle;connectable=0;fillColor=none;top=0;left=0;bottom=0;right=0;align=left;spacingLeft=6;fontStyle=5;overflow=hidden;whiteSpace=wrap;html=1;fontSize=16;" vertex="1" parent="Lbr_G0M4RC8AalQgOM9N-68">
          <mxGeometry x="30" width="160" height="33" as="geometry">
            <mxRectangle width="160" height="33" as="alternateBounds" />
          </mxGeometry>
        </mxCell>
        <mxCell id="Lbr_G0M4RC8AalQgOM9N-71" value="" style="shape=tableRow;horizontal=0;startSize=0;swimlaneHead=0;swimlaneBody=0;fillColor=none;collapsible=0;dropTarget=0;points=[[0,0.5],[1,0.5]];portConstraint=eastwest;top=0;left=0;right=0;bottom=0;fontSize=16;fontStyle=1" vertex="1" parent="Lbr_G0M4RC8AalQgOM9N-67">
          <mxGeometry y="63" width="190" height="33" as="geometry" />
        </mxCell>
        <mxCell id="Lbr_G0M4RC8AalQgOM9N-72" value="" style="shape=partialRectangle;connectable=0;fillColor=none;top=0;left=0;bottom=0;right=0;editable=1;overflow=hidden;whiteSpace=wrap;html=1;fontSize=16;fontStyle=1" vertex="1" parent="Lbr_G0M4RC8AalQgOM9N-71">
          <mxGeometry width="30" height="33" as="geometry">
            <mxRectangle width="30" height="33" as="alternateBounds" />
          </mxGeometry>
        </mxCell>
        <mxCell id="Lbr_G0M4RC8AalQgOM9N-73" value="product_id" style="shape=partialRectangle;connectable=0;fillColor=none;top=0;left=0;bottom=0;right=0;align=left;spacingLeft=6;overflow=hidden;whiteSpace=wrap;html=1;fontSize=16;fontStyle=1" vertex="1" parent="Lbr_G0M4RC8AalQgOM9N-71">
          <mxGeometry x="30" width="160" height="33" as="geometry">
            <mxRectangle width="160" height="33" as="alternateBounds" />
          </mxGeometry>
        </mxCell>
        <mxCell id="Lbr_G0M4RC8AalQgOM9N-74" value="" style="shape=tableRow;horizontal=0;startSize=0;swimlaneHead=0;swimlaneBody=0;fillColor=none;collapsible=0;dropTarget=0;points=[[0,0.5],[1,0.5]];portConstraint=eastwest;top=0;left=0;right=0;bottom=0;fontSize=16;fontStyle=1" vertex="1" parent="Lbr_G0M4RC8AalQgOM9N-67">
          <mxGeometry y="96" width="190" height="33" as="geometry" />
        </mxCell>
        <mxCell id="Lbr_G0M4RC8AalQgOM9N-75" value="" style="shape=partialRectangle;connectable=0;fillColor=none;top=0;left=0;bottom=0;right=0;editable=1;overflow=hidden;whiteSpace=wrap;html=1;fontSize=16;fontStyle=1" vertex="1" parent="Lbr_G0M4RC8AalQgOM9N-74">
          <mxGeometry width="30" height="33" as="geometry">
            <mxRectangle width="30" height="33" as="alternateBounds" />
          </mxGeometry>
        </mxCell>
        <mxCell id="Lbr_G0M4RC8AalQgOM9N-76" value="product_number" style="shape=partialRectangle;connectable=0;fillColor=none;top=0;left=0;bottom=0;right=0;align=left;spacingLeft=6;overflow=hidden;whiteSpace=wrap;html=1;fontSize=16;fontStyle=1" vertex="1" parent="Lbr_G0M4RC8AalQgOM9N-74">
          <mxGeometry x="30" width="160" height="33" as="geometry">
            <mxRectangle width="160" height="33" as="alternateBounds" />
          </mxGeometry>
        </mxCell>
        <mxCell id="Lbr_G0M4RC8AalQgOM9N-77" value="" style="shape=tableRow;horizontal=0;startSize=0;swimlaneHead=0;swimlaneBody=0;fillColor=none;collapsible=0;dropTarget=0;points=[[0,0.5],[1,0.5]];portConstraint=eastwest;top=0;left=0;right=0;bottom=0;fontSize=16;fontStyle=1" vertex="1" parent="Lbr_G0M4RC8AalQgOM9N-67">
          <mxGeometry y="129" width="190" height="33" as="geometry" />
        </mxCell>
        <mxCell id="Lbr_G0M4RC8AalQgOM9N-78" value="" style="shape=partialRectangle;connectable=0;fillColor=none;top=0;left=0;bottom=0;right=0;editable=1;overflow=hidden;whiteSpace=wrap;html=1;fontSize=16;fontStyle=1" vertex="1" parent="Lbr_G0M4RC8AalQgOM9N-77">
          <mxGeometry width="30" height="33" as="geometry">
            <mxRectangle width="30" height="33" as="alternateBounds" />
          </mxGeometry>
        </mxCell>
        <mxCell id="Lbr_G0M4RC8AalQgOM9N-79" value="product_name" style="shape=partialRectangle;connectable=0;fillColor=none;top=0;left=0;bottom=0;right=0;align=left;spacingLeft=6;overflow=hidden;whiteSpace=wrap;html=1;fontSize=16;fontStyle=1" vertex="1" parent="Lbr_G0M4RC8AalQgOM9N-77">
          <mxGeometry x="30" width="160" height="33" as="geometry">
            <mxRectangle width="160" height="33" as="alternateBounds" />
          </mxGeometry>
        </mxCell>
        <mxCell id="Lbr_G0M4RC8AalQgOM9N-80" value="" style="shape=tableRow;horizontal=0;startSize=0;swimlaneHead=0;swimlaneBody=0;fillColor=none;collapsible=0;dropTarget=0;points=[[0,0.5],[1,0.5]];portConstraint=eastwest;top=0;left=0;right=0;bottom=0;fontSize=16;fontStyle=1" vertex="1" parent="Lbr_G0M4RC8AalQgOM9N-67">
          <mxGeometry y="162" width="190" height="33" as="geometry" />
        </mxCell>
        <mxCell id="Lbr_G0M4RC8AalQgOM9N-81" value="" style="shape=partialRectangle;connectable=0;fillColor=none;top=0;left=0;bottom=0;right=0;editable=1;overflow=hidden;whiteSpace=wrap;html=1;fontSize=16;fontStyle=1" vertex="1" parent="Lbr_G0M4RC8AalQgOM9N-80">
          <mxGeometry width="30" height="33" as="geometry">
            <mxRectangle width="30" height="33" as="alternateBounds" />
          </mxGeometry>
        </mxCell>
        <mxCell id="Lbr_G0M4RC8AalQgOM9N-82" value="category_id" style="shape=partialRectangle;connectable=0;fillColor=none;top=0;left=0;bottom=0;right=0;align=left;spacingLeft=6;overflow=hidden;whiteSpace=wrap;html=1;fontSize=16;fontStyle=1" vertex="1" parent="Lbr_G0M4RC8AalQgOM9N-80">
          <mxGeometry x="30" width="160" height="33" as="geometry">
            <mxRectangle width="160" height="33" as="alternateBounds" />
          </mxGeometry>
        </mxCell>
        <mxCell id="Lbr_G0M4RC8AalQgOM9N-83" value="" style="shape=tableRow;horizontal=0;startSize=0;swimlaneHead=0;swimlaneBody=0;fillColor=none;collapsible=0;dropTarget=0;points=[[0,0.5],[1,0.5]];portConstraint=eastwest;top=0;left=0;right=0;bottom=0;fontSize=16;fontStyle=1" vertex="1" parent="Lbr_G0M4RC8AalQgOM9N-67">
          <mxGeometry y="195" width="190" height="33" as="geometry" />
        </mxCell>
        <mxCell id="Lbr_G0M4RC8AalQgOM9N-84" value="" style="shape=partialRectangle;connectable=0;fillColor=none;top=0;left=0;bottom=0;right=0;editable=1;overflow=hidden;whiteSpace=wrap;html=1;fontSize=16;fontStyle=1" vertex="1" parent="Lbr_G0M4RC8AalQgOM9N-83">
          <mxGeometry width="30" height="33" as="geometry">
            <mxRectangle width="30" height="33" as="alternateBounds" />
          </mxGeometry>
        </mxCell>
        <mxCell id="Lbr_G0M4RC8AalQgOM9N-85" value="category" style="shape=partialRectangle;connectable=0;fillColor=none;top=0;left=0;bottom=0;right=0;align=left;spacingLeft=6;overflow=hidden;whiteSpace=wrap;html=1;fontSize=16;fontStyle=1" vertex="1" parent="Lbr_G0M4RC8AalQgOM9N-83">
          <mxGeometry x="30" width="160" height="33" as="geometry">
            <mxRectangle width="160" height="33" as="alternateBounds" />
          </mxGeometry>
        </mxCell>
        <mxCell id="Lbr_G0M4RC8AalQgOM9N-86" value="" style="shape=tableRow;horizontal=0;startSize=0;swimlaneHead=0;swimlaneBody=0;fillColor=none;collapsible=0;dropTarget=0;points=[[0,0.5],[1,0.5]];portConstraint=eastwest;top=0;left=0;right=0;bottom=0;fontSize=16;fontStyle=1" vertex="1" parent="Lbr_G0M4RC8AalQgOM9N-67">
          <mxGeometry y="228" width="190" height="33" as="geometry" />
        </mxCell>
        <mxCell id="Lbr_G0M4RC8AalQgOM9N-87" value="" style="shape=partialRectangle;connectable=0;fillColor=none;top=0;left=0;bottom=0;right=0;editable=1;overflow=hidden;whiteSpace=wrap;html=1;fontSize=16;fontStyle=1" vertex="1" parent="Lbr_G0M4RC8AalQgOM9N-86">
          <mxGeometry width="30" height="33" as="geometry">
            <mxRectangle width="30" height="33" as="alternateBounds" />
          </mxGeometry>
        </mxCell>
        <mxCell id="Lbr_G0M4RC8AalQgOM9N-88" value="subcategory" style="shape=partialRectangle;connectable=0;fillColor=none;top=0;left=0;bottom=0;right=0;align=left;spacingLeft=6;overflow=hidden;whiteSpace=wrap;html=1;fontSize=16;fontStyle=1" vertex="1" parent="Lbr_G0M4RC8AalQgOM9N-86">
          <mxGeometry x="30" width="160" height="33" as="geometry">
            <mxRectangle width="160" height="33" as="alternateBounds" />
          </mxGeometry>
        </mxCell>
        <mxCell id="Lbr_G0M4RC8AalQgOM9N-89" value="" style="shape=tableRow;horizontal=0;startSize=0;swimlaneHead=0;swimlaneBody=0;fillColor=none;collapsible=0;dropTarget=0;points=[[0,0.5],[1,0.5]];portConstraint=eastwest;top=0;left=0;right=0;bottom=0;fontSize=16;fontStyle=1" vertex="1" parent="Lbr_G0M4RC8AalQgOM9N-67">
          <mxGeometry y="261" width="190" height="33" as="geometry" />
        </mxCell>
        <mxCell id="Lbr_G0M4RC8AalQgOM9N-90" value="" style="shape=partialRectangle;connectable=0;fillColor=none;top=0;left=0;bottom=0;right=0;editable=1;overflow=hidden;whiteSpace=wrap;html=1;fontSize=16;fontStyle=1" vertex="1" parent="Lbr_G0M4RC8AalQgOM9N-89">
          <mxGeometry width="30" height="33" as="geometry">
            <mxRectangle width="30" height="33" as="alternateBounds" />
          </mxGeometry>
        </mxCell>
        <mxCell id="Lbr_G0M4RC8AalQgOM9N-91" value="maintenance" style="shape=partialRectangle;connectable=0;fillColor=none;top=0;left=0;bottom=0;right=0;align=left;spacingLeft=6;overflow=hidden;whiteSpace=wrap;html=1;fontSize=16;fontStyle=1" vertex="1" parent="Lbr_G0M4RC8AalQgOM9N-89">
          <mxGeometry x="30" width="160" height="33" as="geometry">
            <mxRectangle width="160" height="33" as="alternateBounds" />
          </mxGeometry>
        </mxCell>
        <mxCell id="Lbr_G0M4RC8AalQgOM9N-92" value="" style="shape=tableRow;horizontal=0;startSize=0;swimlaneHead=0;swimlaneBody=0;fillColor=none;collapsible=0;dropTarget=0;points=[[0,0.5],[1,0.5]];portConstraint=eastwest;top=0;left=0;right=0;bottom=0;fontSize=16;fontStyle=1" vertex="1" parent="Lbr_G0M4RC8AalQgOM9N-67">
          <mxGeometry y="294" width="190" height="33" as="geometry" />
        </mxCell>
        <mxCell id="Lbr_G0M4RC8AalQgOM9N-93" value="" style="shape=partialRectangle;connectable=0;fillColor=none;top=0;left=0;bottom=0;right=0;editable=1;overflow=hidden;whiteSpace=wrap;html=1;fontSize=16;fontStyle=1" vertex="1" parent="Lbr_G0M4RC8AalQgOM9N-92">
          <mxGeometry width="30" height="33" as="geometry">
            <mxRectangle width="30" height="33" as="alternateBounds" />
          </mxGeometry>
        </mxCell>
        <mxCell id="Lbr_G0M4RC8AalQgOM9N-94" value="cost" style="shape=partialRectangle;connectable=0;fillColor=none;top=0;left=0;bottom=0;right=0;align=left;spacingLeft=6;overflow=hidden;whiteSpace=wrap;html=1;fontSize=16;fontStyle=1" vertex="1" parent="Lbr_G0M4RC8AalQgOM9N-92">
          <mxGeometry x="30" width="160" height="33" as="geometry">
            <mxRectangle width="160" height="33" as="alternateBounds" />
          </mxGeometry>
        </mxCell>
        <mxCell id="Lbr_G0M4RC8AalQgOM9N-95" value="" style="shape=tableRow;horizontal=0;startSize=0;swimlaneHead=0;swimlaneBody=0;fillColor=none;collapsible=0;dropTarget=0;points=[[0,0.5],[1,0.5]];portConstraint=eastwest;top=0;left=0;right=0;bottom=0;fontSize=16;fontStyle=1" vertex="1" parent="Lbr_G0M4RC8AalQgOM9N-67">
          <mxGeometry y="327" width="190" height="33" as="geometry" />
        </mxCell>
        <mxCell id="Lbr_G0M4RC8AalQgOM9N-96" value="" style="shape=partialRectangle;connectable=0;fillColor=none;top=0;left=0;bottom=0;right=0;editable=1;overflow=hidden;whiteSpace=wrap;html=1;fontSize=16;fontStyle=1" vertex="1" parent="Lbr_G0M4RC8AalQgOM9N-95">
          <mxGeometry width="30" height="33" as="geometry">
            <mxRectangle width="30" height="33" as="alternateBounds" />
          </mxGeometry>
        </mxCell>
        <mxCell id="Lbr_G0M4RC8AalQgOM9N-97" value="product_line" style="shape=partialRectangle;connectable=0;fillColor=none;top=0;left=0;bottom=0;right=0;align=left;spacingLeft=6;overflow=hidden;whiteSpace=wrap;html=1;fontSize=16;fontStyle=1" vertex="1" parent="Lbr_G0M4RC8AalQgOM9N-95">
          <mxGeometry x="30" width="160" height="33" as="geometry">
            <mxRectangle width="160" height="33" as="alternateBounds" />
          </mxGeometry>
        </mxCell>
        <mxCell id="Lbr_G0M4RC8AalQgOM9N-98" value="" style="shape=tableRow;horizontal=0;startSize=0;swimlaneHead=0;swimlaneBody=0;fillColor=none;collapsible=0;dropTarget=0;points=[[0,0.5],[1,0.5]];portConstraint=eastwest;top=0;left=0;right=0;bottom=0;fontSize=16;fontStyle=1" vertex="1" parent="Lbr_G0M4RC8AalQgOM9N-67">
          <mxGeometry y="360" width="190" height="33" as="geometry" />
        </mxCell>
        <mxCell id="Lbr_G0M4RC8AalQgOM9N-99" value="" style="shape=partialRectangle;connectable=0;fillColor=none;top=0;left=0;bottom=0;right=0;editable=1;overflow=hidden;whiteSpace=wrap;html=1;fontSize=16;fontStyle=1" vertex="1" parent="Lbr_G0M4RC8AalQgOM9N-98">
          <mxGeometry width="30" height="33" as="geometry">
            <mxRectangle width="30" height="33" as="alternateBounds" />
          </mxGeometry>
        </mxCell>
        <mxCell id="Lbr_G0M4RC8AalQgOM9N-100" value="start_date" style="shape=partialRectangle;connectable=0;fillColor=none;top=0;left=0;bottom=0;right=0;align=left;spacingLeft=6;overflow=hidden;whiteSpace=wrap;html=1;fontSize=16;fontStyle=1" vertex="1" parent="Lbr_G0M4RC8AalQgOM9N-98">
          <mxGeometry x="30" width="160" height="33" as="geometry">
            <mxRectangle width="160" height="33" as="alternateBounds" />
          </mxGeometry>
        </mxCell>
        <mxCell id="Lbr_G0M4RC8AalQgOM9N-101" value="" style="edgeStyle=entityRelationEdgeStyle;fontSize=12;html=1;endArrow=ERzeroToMany;startArrow=ERmandOne;rounded=0;startSize=8;endSize=8;curved=1;" edge="1" parent="1" source="Lbr_G0M4RC8AalQgOM9N-3" target="Lbr_G0M4RC8AalQgOM9N-43">
          <mxGeometry width="100" height="100" relative="1" as="geometry">
            <mxPoint x="630" y="275" as="sourcePoint" />
            <mxPoint x="730" y="175" as="targetPoint" />
          </mxGeometry>
        </mxCell>
        <mxCell id="Lbr_G0M4RC8AalQgOM9N-102" value="" style="edgeStyle=entityRelationEdgeStyle;fontSize=12;html=1;endArrow=ERzeroToMany;startArrow=ERmandOne;rounded=0;startSize=8;endSize=8;curved=1;" edge="1" parent="1" source="Lbr_G0M4RC8AalQgOM9N-68" target="Lbr_G0M4RC8AalQgOM9N-40">
          <mxGeometry width="100" height="100" relative="1" as="geometry">
            <mxPoint x="581" y="436" as="sourcePoint" />
            <mxPoint x="730" y="175" as="targetPoint" />
          </mxGeometry>
        </mxCell>
        <mxCell id="Lbr_G0M4RC8AalQgOM9N-103" value="&lt;h1 style=&quot;margin-top: 0px;&quot;&gt;&lt;font style=&quot;font-size: 18px;&quot;&gt;&lt;u&gt;Sales Calculation&lt;/u&gt;&lt;/font&gt;&lt;/h1&gt;&lt;p&gt;&lt;font style=&quot;font-size: 15px;&quot;&gt;Sales = Quantity * Price&lt;/font&gt;&lt;/p&gt;" style="text;html=1;whiteSpace=wrap;overflow=hidden;rounded=0;" vertex="1" parent="1">
          <mxGeometry x="335" y="335" width="174" height="91" as="geometry" />
        </mxCell>
        <mxCell id="Lbr_G0M4RC8AalQgOM9N-104" value="" style="endArrow=none;dashed=1;html=1;dashPattern=1 3;strokeWidth=2;rounded=0;fontSize=12;startSize=8;endSize=8;curved=1;exitX=0.5;exitY=0;exitDx=0;exitDy=0;entryX=0;entryY=0.5;entryDx=0;entryDy=0;" edge="1" parent="1" source="Lbr_G0M4RC8AalQgOM9N-103" target="Lbr_G0M4RC8AalQgOM9N-55">
          <mxGeometry width="50" height="50" relative="1" as="geometry">
            <mxPoint x="655" y="250" as="sourcePoint" />
            <mxPoint x="787" y="156" as="targetPoint" />
          </mxGeometry>
        </mxCell>
      </root>
    </mxGraphModel>
  </diagram>
</mxfile>
